HIERARCHY
ROOT Hips
{
	OFFSET 0.000000 0.000000 0.000000
	CHANNELS 6 Xposition Yposition Zposition Zrotation Yrotation Xrotation 
	JOINT LHipJoint
	{
		OFFSET 0.000000 0.000000 0.000000
		CHANNELS 3 Zrotation Yrotation Xrotation
		JOINT LeftUpLeg
		{
			OFFSET 1.363060 -1.794630 0.839290
			CHANNELS 3 Zrotation Yrotation Xrotation
			JOINT LeftLeg
			{
				OFFSET 2.448110 -6.726130 0.000000
				CHANNELS 3 Zrotation Yrotation Xrotation
				JOINT LeftFoot
				{
					OFFSET 2.562200 -7.039590 0.000000
					CHANNELS 3 Zrotation Yrotation Xrotation
					JOINT LeftToeBase
					{
						OFFSET 0.157640 -0.433110 2.322550
						CHANNELS 3 Zrotation Yrotation Xrotation
						End Site
						{
							OFFSET 0.000000 0.000000 0.000000
						}
					}
				}
			}
		}
	}
	JOINT RHipJoint
	{
		OFFSET 0.000000 0.000000 0.000000
		CHANNELS 3 Zrotation Yrotation Xrotation
		JOINT RightUpLeg
		{
			OFFSET -1.305520 -1.794630 0.839290
			CHANNELS 3 Zrotation Yrotation Xrotation
			JOINT RightLeg
			{
				OFFSET -2.542530 -6.985550 0.000000
				CHANNELS 3 Zrotation Yrotation Xrotation
				JOINT RightFoot
				{
					OFFSET -2.568260 -7.056230 0.000000
					CHANNELS 3 Zrotation Yrotation Xrotation
					JOINT RightToeBase
					{
						OFFSET -0.164730 -0.452590 2.363150
						CHANNELS 3 Zrotation Yrotation Xrotation
						End Site
						{
							OFFSET 0.000000 0.000000 0.000000
						}
					}
				}
			}
		}
	}
}
MOTION
Frames: 16
Frame Time: 0.008333
26.127719 16.873908 3.932686 170.513155 -88.192411 -142.673276 -11.904190 2.481700 -2.874676 -4.689641 9.480134 -8.842902 -1.429262 1.051645 20.706537 0.560569 2.150954 10.190906 0.540600 0.000001 -80.259700 7.920123 0.235657 1.925588 8.043133 8.645312 -47.931497 2.325382 -1.080994 24.161790 -1.082276 -3.212213 -5.110571 -0.710300 -0.000000 -21.979700
25.981113 16.875807 3.891115 177.158859 -88.632043 -149.328314 -11.964831 2.417098 -2.843961 -4.051640 9.301172 -9.434516 -1.272612 1.168677 22.422900 0.619045 2.179293 11.068659 0.536200 0.000000 -78.926999 7.879577 0.181199 1.773051 8.649521 8.505727 -47.639964 2.379400 -1.171231 25.148143 -1.134874 -3.186585 -6.194593 -0.595900 0.000000 -21.357100
25.836224 16.880971 3.848836 -166.491110 -89.317314 -165.695732 -11.973234 2.259732 -2.830272 -3.379583 9.081042 -10.111764 -1.065341 1.241075 24.309036 0.675846 2.264807 11.880891 0.552100 0.000000 -76.694201 7.856396 0.039017 1.658321 9.285784 8.283429 -47.254115 2.473499 -1.267242 25.826939 -1.204971 -3.209786 -7.306181 -0.482300 -0.000000 -20.793600
25.693337 16.889018 3.805525 71.229638 -89.485564 -43.461508 -12.564655 1.991472 -2.784891 -2.969180 8.819136 -10.897886 -0.779036 1.272032 26.276863 0.750111 2.491611 12.602299 0.605199 -0.000000 -73.580899 7.245513 -0.340652 1.521336 9.660755 7.883484 -46.777063 2.578273 -1.303966 26.304927 -1.262149 -3.194626 -8.394143 -0.373100 0.000000 -20.305200
25.552093 16.899670 3.761335 130.399826 -89.566313 -102.595308 -12.779151 2.151136 -2.702371 -2.625694 8.724878 -11.843011 -0.806122 1.526023 28.211943 0.882613 2.950308 13.104383 0.707200 0.000001 -69.688801 7.114902 -0.138215 1.264773 10.259836 7.757738 -46.063213 2.595869 -1.169718 26.600471 -1.287195 -3.120663 -9.264376 -0.273200 0.000000 -19.906800
25.408670 16.913628 3.725022 -18.935283 -89.297829 46.924276 -12.713299 2.137137 -2.397798 -1.697812 7.745328 -13.360972 -0.715132 1.712219 30.727664 0.998426 3.407649 13.269782 0.814100 -0.000000 -65.186100 7.206668 -0.063158 1.013022 11.461017 6.882409 -45.418971 2.771339 -1.082985 26.345843 -1.354256 -3.208335 -10.023228 -0.193900 -0.000000 -19.508100
25.271050 16.928573 3.679422 -16.769159 -88.881297 44.775887 -12.746729 2.044329 -2.346368 -1.335975 7.433393 -14.378400 -0.601525 1.827397 32.832574 1.111824 4.148700 13.424152 1.036200 -0.000000 -60.335600 7.160478 -0.114888 0.875389 12.011395 6.535477 -44.654650 2.856986 -1.026880 26.127307 -1.400264 -3.238500 -10.642269 -0.121800 0.000000 -19.328200
25.134845 16.945733 3.634438 -15.207575 -88.458408 43.242758 -12.782627 1.939542 -2.290902 -1.009454 7.097373 -15.460914 -0.494161 1.940595 34.937759 1.232618 5.032522 13.389115 1.304100 0.000001 -55.438900 7.106053 -0.175731 0.750489 12.544941 6.192954 -43.828962 2.941067 -0.950654 25.712132 -1.440261 -3.297952 -11.066554 -0.071000 0.000000 -19.242500
25.000067 16.965092 3.589292 -13.535589 -88.047731 41.605896 -12.796588 1.833251 -2.231237 -0.765907 6.710318 -16.568555 -0.393305 2.048916 36.989573 1.361863 6.067198 13.190932 1.617700 0.000000 -50.750900 7.071667 -0.231315 0.630868 13.021305 5.824337 -42.974447 3.019076 -0.866149 25.174849 -1.465000 -3.342013 -11.317162 -0.038300 0.000000 -19.265500
24.866780 16.986772 3.544815 -12.073159 -87.652971 40.186038 -12.801597 1.722565 -2.168389 -0.583167 6.287452 -17.696588 -0.297835 2.152399 38.963018 1.498326 7.207766 12.856580 1.956300 -0.000000 -46.500300 7.043829 -0.286478 0.518874 13.453179 5.457740 -42.095538 3.091381 -0.773272 24.529534 -1.476488 -3.378816 -11.406230 -0.023800 -0.000000 -19.373200
24.734859 17.010806 3.501308 -10.846638 -87.282716 39.007849 -12.800368 1.608019 -2.103904 -0.454920 5.837430 -18.831384 -0.207692 2.250284 40.831390 1.639992 8.410853 12.413511 2.300900 -0.000000 -42.822000 7.019790 -0.341055 0.414012 13.842828 5.104608 -41.199168 3.158311 -0.674114 23.800517 -1.475241 -3.403388 -11.361297 -0.024800 0.000000 -19.543000
24.604063 17.037218 3.459054 -9.879335 -86.945418 38.094315 -12.795712 1.490119 -2.039498 -0.372417 5.371887 -19.961724 -0.123379 2.341987 42.573760 1.783451 9.627111 11.884043 2.631300 0.000000 -39.769200 6.996271 -0.395462 0.316256 14.195554 4.775850 -40.287800 3.220820 -0.569620 23.004456 -1.462964 -3.413996 -11.213095 -0.037800 0.000000 -19.755201
24.474759 17.065925 3.417980 -9.119263 -86.649593 37.388272 -12.786575 1.370469 -1.977636 -0.334315 4.900571 -21.074666 -0.045840 2.426847 44.173026 1.924323 10.809156 11.284919 2.929400 0.000000 -37.320500 6.974250 -0.448077 0.223357 14.512448 4.470610 -39.364473 3.279998 -0.461647 22.160394 -1.440480 -3.402890 -10.996080 -0.058599 0.000000 -19.984700
24.346273 17.096766 3.378158 -8.596990 -86.399583 36.920080 -12.775923 1.249469 -1.919724 -0.328882 4.437711 -22.164758 0.024030 2.504817 45.619919 2.057367 11.907413 10.627957 3.177301 -0.000000 -35.422700 6.949865 -0.500434 0.136698 14.802202 4.198216 -38.423497 3.336945 -0.349001 21.267292 -1.410977 -3.377324 -10.731589 -0.084600 0.000000 -20.227600
24.218758 17.129470 3.339229 -8.213241 -86.200154 36.586861 -12.759946 1.129791 -1.867272 -0.360818 3.988675 -23.223076 0.085202 2.575069 46.906232 2.177835 12.886150 9.921667 3.363900 0.000000 -33.983900 6.927790 -0.550205 0.053593 15.062074 3.947216 -37.467260 3.392102 -0.233502 20.338470 -1.374577 -3.329863 -10.441922 -0.112599 -0.000000 -20.469600
24.092213 17.163685 3.300971 -7.956142 -86.051047 36.372653 -12.738829 1.012226 -1.820866 -0.424593 3.560922 -24.247786 0.137007 2.637615 48.031301 2.281481 13.714875 9.171225 3.480700 0.000000 -32.912000 6.907625 -0.597702 -0.025239 15.296046 3.718764 -36.490740 3.445325 -0.114484 19.369534 -1.333518 -3.269119 -10.131712 -0.142001 0.000000 -20.723200
